<?xml version="1.0" encoding="UTF-8"?>
<!DOCTYPE svg PUBLIC "-//W3C//DTD SVG 1.1//EN" "http://www.w3.org/Graphics/SVG/1.1/DTD/svg11.dtd">
<!-- Creator: CorelDRAW 2020 (64-Bit) -->
<svg xmlns="http://www.w3.org/2000/svg" xml:space="preserve" width="11in" height="8.5in" version="1.1" style="shape-rendering:geometricPrecision; text-rendering:geometricPrecision; image-rendering:optimizeQuality; fill-rule:evenodd; clip-rule:evenodd"
viewBox="0 0 11000 8500"
 xmlns:xlink="http://www.w3.org/1999/xlink"
 xmlns:xodm="http://www.corel.com/coreldraw/odm/2003">
 <defs>
  <style type="text/css">
   <![CDATA[
    .fil0 {fill:#1E1A1E;fill-rule:nonzero}
   ]]>
  </style>
 </defs>
 <g id="Layer_x0020_1">
  <metadata id="CorelCorpID_0Corel-Layer"/>
  <path class="fil0" d="M5742.12 4423.66c0,54.52 -44.33,98.88 -98.85,98.88l-933.23 0c-54.55,0 -98.88,-44.36 -98.88,-98.88l0 -651.89c0,-13.26 2.66,-25.89 7.43,-37.46l394.74 447.89c41.3,46.85 100.85,73.78 163.31,73.78 62.49,0 122.01,-26.93 163.34,-73.78l394.72 -447.89c4.77,11.57 7.42,24.2 7.42,37.46l0 651.89zm-98.85 -750.73c7.73,0 15.23,0.97 22.48,2.66l-393.69 446.74c-24.13,27.37 -58.93,43.09 -95.42,43.09 -36.49,0 -71.26,-15.72 -95.4,-43.09l-393.71 -446.74c7.24,-1.69 14.78,-2.66 22.51,-2.66l933.23 0zm0 -90.56l-933.23 0c-104.47,0 -189.44,84.96 -189.44,189.4l0 651.89c0,104.47 84.96,189.41 189.44,189.41l933.23 0c104.44,0 189.41,-84.94 189.41,-189.41l0 -651.89c0,-104.44 -84.96,-189.4 -189.41,-189.4z"/>
 </g>
</svg>
