<?xml version="1.0" encoding="UTF-8"?>
<!DOCTYPE svg PUBLIC "-//W3C//DTD SVG 1.1//EN" "http://www.w3.org/Graphics/SVG/1.1/DTD/svg11.dtd">
<!-- Creator: CorelDRAW 2020 (64-Bit) -->
<svg xmlns="http://www.w3.org/2000/svg" xml:space="preserve" width="8.5in" height="11in" version="1.1" style="shape-rendering:geometricPrecision; text-rendering:geometricPrecision; image-rendering:optimizeQuality; fill-rule:evenodd; clip-rule:evenodd"
viewBox="0 0 8500 11000"
 xmlns:xlink="http://www.w3.org/1999/xlink"
 xmlns:xodm="http://www.corel.com/coreldraw/odm/2003">
 <defs>
  <style type="text/css">
   <![CDATA[
    .fil0 {fill:#1E1A1E;fill-rule:nonzero}
   ]]>
  </style>
 </defs>
 <g id="Layer_x0020_1">
  <metadata id="CorelCorpID_0Corel-Layer"/>
  <path class="fil0" d="M7452.96 7803.42c0,314.96 -256.11,571.24 -571.01,571.24l-5391.2 0c-315.13,0 -571.24,-256.28 -571.24,-571.24l0 -3765.91c0,-76.61 15.38,-149.59 42.91,-216.42l2280.43 2587.42c238.58,270.64 582.6,426.22 943.41,426.22 360.98,0 704.83,-155.59 943.58,-426.22l2280.26 -2587.42c27.54,66.82 42.85,139.81 42.85,216.42l0 3765.91zm-571.01 -4336.92c44.67,0 87.97,5.6 129.87,15.38l-2274.33 2580.81c-139.36,158.13 -340.4,248.93 -551.22,248.93 -210.82,0 -411.69,-90.8 -551.11,-248.93l-2274.44 -2580.81c41.84,-9.78 85.37,-15.38 130.04,-15.38l5391.2 0zm0 -523.13l-5391.2 0c-603.52,0 -1094.37,490.79 -1094.37,1094.14l0 3765.91c0,603.52 490.84,1094.2 1094.37,1094.2l5391.2 0c603.35,0 1094.2,-490.67 1094.2,-1094.2l0 -3765.91c0,-603.35 -490.85,-1094.14 -1094.2,-1094.14z"/>
 </g>
</svg>
