<?xml version="1.0" encoding="UTF-8"?>
<!DOCTYPE svg PUBLIC "-//W3C//DTD SVG 1.1//EN" "http://www.w3.org/Graphics/SVG/1.1/DTD/svg11.dtd">
<!-- Creator: CorelDRAW 2020 (64-Bit) -->
<svg xmlns="http://www.w3.org/2000/svg" xml:space="preserve" width="8.5in" height="11in" version="1.1" style="shape-rendering:geometricPrecision; text-rendering:geometricPrecision; image-rendering:optimizeQuality; fill-rule:evenodd; clip-rule:evenodd"
viewBox="0 0 8500 11000"
 xmlns:xlink="http://www.w3.org/1999/xlink"
 xmlns:xodm="http://www.corel.com/coreldraw/odm/2003">
 <defs>
  <style type="text/css">
   <![CDATA[
    .fil0 {fill:#1E1A1E;fill-rule:nonzero}
   ]]>
  </style>
 </defs>
 <g id="Layer_x0020_1">
  <metadata id="CorelCorpID_0Corel-Layer"/>
  <path class="fil0" d="M4137.22 2343.44c-1453.68,0 -2636.31,1182.57 -2636.31,2636.06 0,1133.6 1742.05,3327.69 2636.31,4333.61 894.02,-1005.93 2636.07,-3200.01 2636.07,-4333.61 0,-1453.49 -1182.39,-2636.06 -2636.07,-2636.06zm0 7684.38l0 0c-79.94,0 -156.16,-33.27 -210.47,-91.93 -122.4,-131.64 -2999.97,-3248.48 -2999.97,-4956.39 0,-1770.04 1440.15,-3210.37 3210.44,-3210.37 1770.29,0 3210.37,1440.33 3210.37,3210.37 0,1707.91 -2877.38,4824.75 -3000.21,4956.39 -54.31,58.65 -130.46,91.93 -210.16,91.93z"/>
  <path class="fil0" d="M4137.22 3968.11c-480.22,0 -871.06,391.02 -871.06,871.24 0,480.15 390.84,871.05 871.06,871.05 480.15,0 871.24,-390.9 871.24,-871.05 0,-480.22 -391.09,-871.24 -871.24,-871.24zm0 2316.6c-797.01,0 -1445.36,-648.3 -1445.36,-1445.36 0,-797.01 648.35,-1445.3 1445.36,-1445.3 797.01,0 1445.37,648.3 1445.37,1445.3 0,797.07 -648.36,1445.36 -1445.37,1445.36z"/>
 </g>
</svg>
